<?xml version="1.0" standalone="no"?><!DOCTYPE svg PUBLIC "-//W3C//DTD SVG 1.1//EN" "http://www.w3.org/Graphics/SVG/1.1/DTD/svg11.dtd"><svg class="icon" width="64px" height="64.00px" viewBox="0 0 1024 1024" version="1.1" xmlns="http://www.w3.org/2000/svg"><path d="M227.5 473.8c-27.2 0-49.2 22-49.2 49.3 0 27.2 22 49.2 49.2 49.2 27.2 0 49.2-22 49.2-49.2 0-27.2-22.1-49.3-49.2-49.3zM227.5 690.4c-27.2 0-49.2 22-49.2 49.2 0 27.2 22 49.3 49.2 49.3 27.2 0 49.2-22 49.2-49.3 0-27.1-22.1-49.2-49.2-49.2zM227.5 257.2c-27.2 0-49.2 22-49.2 49.2 0 27.2 22 49.2 49.2 49.2 27.2 0 49.2-22 49.2-49.2 0-27.1-22.1-49.2-49.2-49.2zM828.1 276.9H375.2c-10.9 0-19.7 8.8-19.7 19.7v19.7c0 10.9 8.8 19.7 19.7 19.7h452.9c10.9 0 19.7-8.8 19.7-19.7v-19.7c0-10.9-8.8-19.7-19.7-19.7zM828.1 710.1H375.2c-10.9 0-19.7 8.8-19.7 19.7v19.7c0 10.9 8.8 19.7 19.7 19.7h452.9c10.9 0 19.7-8.8 19.7-19.7v-19.7c0-10.8-8.8-19.7-19.7-19.7zM828.1 493.6H375.2c-10.9 0-19.7 8.8-19.7 19.7V533c0 10.8 8.8 19.7 19.7 19.7h452.9c10.9 0 19.7-8.8 19.7-19.7v-19.7c0-10.9-8.8-19.7-19.7-19.7z" fill="#515151" /></svg>