<?xml version="1.0" standalone="no"?><!DOCTYPE svg PUBLIC "-//W3C//DTD SVG 1.1//EN" "http://www.w3.org/Graphics/SVG/1.1/DTD/svg11.dtd"><svg class="icon" width="64px" height="64.00px" viewBox="0 0 1024 1024" version="1.1" xmlns="http://www.w3.org/2000/svg"><path d="M613.797647 112.037647c-9.637647-2.409412-19.275294 3.011765-22.287059 12.649412s3.011765 19.275294 12.649412 22.287059c168.658824 46.381176 286.72 201.788235 286.72 377.072941 0 215.642353-175.284706 390.927059-390.927059 390.927059S109.025882 739.689412 109.025882 524.047059c0-174.682353 116.856471-329.487059 284.912941-376.470588 9.637647-2.409412 15.058824-12.649412 12.649412-22.287059s-12.649412-15.058824-22.287059-12.649412C200.583529 164.442353 72.884706 333.101176 72.884706 524.047059c0 235.52 191.548235 427.068235 427.068235 427.068235s427.068235-191.548235 427.068235-427.068235C927.021176 332.498824 798.117647 163.237647 613.797647 112.037647z" fill="#ffffff" /><path d="M499.952941 471.642353c10.24 0 18.070588-7.830588 18.070588-18.070588L518.023529 33.129412c0-10.24-7.830588-18.070588-18.070588-18.070588s-18.070588 7.830588-18.070588 18.070588l0 420.442353C481.882353 463.209412 489.712941 471.642353 499.952941 471.642353z" fill="#ffffff" /></svg>